# xmcd
#
# Track frame offsets: 
#        150
#        17568
#        39153
#        44623
#        57541
#        84260
#        100193
#        114054
#        128564
#        147044
#        163609
#        183402
#        204792
#        223818
#        245256
#        250459
#        260769
#        277432
#        293622
#        303632
#        310222
#        324301
#
# Disc length: 4610 seconds
#
# Revision: 0
# Processed by: cddbd v1.5.2PL0 Copyright (c) Steve Scherf et al.
# Submitted via: ExactAudioCopyFreeDBPlugin 1.0
#
DISCID=3a120016
DTITLE=Leadbelly - Complete Recordings Vol 4
DYEAR=2015
DGENRE=Blues
TTITLE0=Got A Gal In The Town With Her Mouth Chock Full Of Gold – [130
TTITLE0=B] {13th February 1935}
TTITLE1=Mary Don’t You Weep – [131-A] {13th February 1935}
TTITLE2=Mary Don’t You Weep – [131-B-1] {13th February 1935}
TTITLE3=Way Over In The Promised Land – [131-B-2] {13th February 1935}
TTITLE4=Death Letter Blues – 1 – [132-A] {13th February 1935}
TTITLE5=Midnight Special – [133-A] {13th February 1935}
TTITLE6=The Shreveport Jail – [133-B] {13th February 1935}
TTITLE7=Easy Mr. Tom – [134-A] {13th February 1935}
TTITLE8=I Ain’t Bothered A Bit – [134-B] {13th February 1935}
TTITLE9=Boll Weevil – [135-A] {13th February 1935}
TTITLE10=Western Cowboy – [135-A] {13th February 1935}
TTITLE11=The Titanic – [136-A] {13th February 1935}
TTITLE12=Blind Lemon Blues – [136-B] {13th February 1935}
TTITLE13=Mr Tom Hughes Town – [137-A] {13th February 1935}
TTITLE14=Mr Tom Hughes Town – [137-B-1] {13th February 1935}
TTITLE15=You Cain’ Lose-A Me Cholly – [137-B-2] {13th February 1935}
TTITLE16=The Medicine Man – [138-A] {13th February 1935}
TTITLE17=The Red Cross Sto’ – [138-B] {13th February 1935}
TTITLE18=Green Corn – [139-A-1] {13th February 1935}
TTITLE19=The Maid Freed From The Gallows – [139-A-2] {13th February 19
TTITLE19=35}
TTITLE20=Po’ Howard – [139-B] {13th February 1935}
TTITLE21=Alberta Blues – [140-A] {13th February 1935}
EXTD=
EXTT0=
EXTT1=
EXTT2=
EXTT3=
EXTT4=
EXTT5=
EXTT6=
EXTT7=
EXTT8=
EXTT9=
EXTT10=
EXTT11=
EXTT12=
EXTT13=
EXTT14=
EXTT15=
EXTT16=
EXTT17=
EXTT18=
EXTT19=
EXTT20=
EXTT21=
PLAYORDER=
